# xmcd CD database file
#
# Track frame offsets:
#	150
#	12536
#	26081
#	44856
#	59577
#	78733
#	97987
#	115512
#	134145
#	151989
#	159777
#	183920
#	202615
#
# Disc length: 2864 seconds
#
# Revision: 0
# Processed by: cddbd v1.5PL3 Copyright (c) Steve Scherf et al.
# Submitted via: CDex 1.51
#
DISCID=a90b2e0d
DTITLE=Mary Martin Stockdale - Timeless
DYEAR=2004
DGENRE=New Age
TTITLE0=Timeless
TTITLE1=Willows by the Stream
TTITLE2=The Calling
TTITLE3=Spider's Web
TTITLE4=Henry's Song
TTITLE5=Catch and Release
TTITLE6=Raindance
TTITLE7=Healing
TTITLE8=Appearances
TTITLE9=Bluebird Waltz
TTITLE10=Smoke in the Valley
TTITLE11=Runnin' Fence
TTITLE12=Falling Snow
EXTD=YEAR: 2004
EXTT0=
EXTT1=
EXTT2=
EXTT3=
EXTT4=
EXTT5=
EXTT6=
EXTT7=
EXTT8=
EXTT9=
EXTT10=
EXTT11=
EXTT12=
PLAYORDER=
